<?xml version="1.0" encoding="UTF-8"?><svg id="Layer_1" xmlns="http://www.w3.org/2000/svg" viewBox="0 0 745.18 1000"><path d="M698.9,480.03c-4.57-35.06-16.78-128.73-92.38-172.37-68.9-39.79-149.41-14.23-190.94,4.34-7.46,3.34-15.88-2.13-15.88-10.31v-68.97c0-6.23,5.05-11.29,11.29-11.29h48.67c6.23,0,11.29-5.05,11.29-11.29v-31.62c0-6.23-5.05-11.29-11.29-11.29h-48.67c-6.23,0-11.29-5.05-11.29-11.29v-45.56c0-6.23-5.05-11.29-11.29-11.29h-31.64c-6.23,0-11.29,5.05-11.29,11.29v45.56c0,6.23-5.05,11.29-11.29,11.29h-48.67c-6.23,0-11.29,5.05-11.29,11.29v31.62c0,6.23,5.05,11.29,11.29,11.29h48.67c6.23,0,11.29,5.05,11.29,11.29v68.97c0,8.18-8.42,13.65-15.88,10.31-41.54-18.57-122.04-44.13-190.94-4.34-75.6,43.64-87.81,137.3-92.38,172.37-31.35,240.99,264.3,453.55,319.96,491.35,3.82,2.6,8.84,2.6,12.67,0,55.69-37.8,351.35-250.36,320-491.36l-.01.01Z" fill="#b00a00"/><path d="M294.07,84.44h157.03c2.01,0,3.63-1.63,3.63-3.63v-45.79c0-2.71-2.87-4.47-5.29-3.23l-33.04,16.89c-1.15.59-2.52.52-3.61-.17l-38.2-24.38c-1.22-.78-2.79-.76-3.99.05l-41.46,28.05c-1.26.85-2.92.83-4.16-.06l-28.8-20.72c-2.4-1.73-5.75-.01-5.75,2.95v46.42c0,2.01,1.63,3.63,3.63,3.63l.01-.01Z" fill="#b00a00"/></svg>